<svg width="251" height="251" viewBox="0 0 251 251" fill="none" xmlns="http://www.w3.org/2000/svg">
<g clip-path="url(#clip0_77_40)">
<mask id="mask0_77_40" style="mask-type:luminance" maskUnits="userSpaceOnUse" x="0" y="0" width="251" height="251">
<path d="M251 0H0V251H251V0Z" fill="white"/>
</mask>
<g mask="url(#mask0_77_40)">
<path d="M238.92 71.7094C238.048 69.8749 235.854 69.0945 234.021 69.9661C232.187 70.8373 231.406 73.0306 232.277 74.865C239.821 90.7442 243.646 107.78 243.646 125.498C243.646 157.057 231.357 186.726 209.042 209.041C186.727 231.356 157.058 243.645 125.499 243.645C106.784 243.645 88.8853 239.398 72.3026 231.021C58.4853 224.041 46.0025 214.242 35.8664 202.466L50.3729 207.302C52.2991 207.944 54.3816 206.903 55.0238 204.976C55.666 203.05 54.6248 200.968 52.6981 200.325L26.5931 191.624C25.3842 191.221 24.0528 191.472 23.0747 192.289C22.0967 193.106 21.6109 194.37 21.7908 195.632L26.1416 226.088C26.4039 227.922 27.9766 229.245 29.7772 229.245C29.9503 229.245 30.1253 229.232 30.3018 229.207C32.3122 228.92 33.7089 227.058 33.4216 225.048L30.994 208.055C41.6316 220.203 54.6267 230.33 68.9876 237.585C86.6076 246.485 105.621 250.998 125.499 250.998C159.022 250.998 190.538 237.944 214.242 214.241C237.945 190.536 250.999 159.021 250.999 125.498C250.999 106.68 246.935 88.5828 238.92 71.7094Z" fill="#1D1D1D"/>
<path d="M229.209 55.3671L224.858 24.9113C224.571 22.9008 222.704 21.5051 220.699 21.7914C218.688 22.0787 217.291 23.9411 217.579 25.951L220.004 42.9269C196.127 15.5698 162.041 0 125.5 0C91.9778 0 60.4621 13.0545 36.7578 36.7578C13.0545 60.4621 0 91.9778 0 125.5C0 144.319 4.06453 162.417 12.0799 179.289C12.7093 180.614 14.0281 181.389 15.4037 181.389C15.9321 181.389 16.4694 181.274 16.9788 181.032C18.8127 180.161 19.5932 177.968 18.722 176.133C11.1783 160.255 7.35352 143.22 7.35352 125.5C7.35352 93.9417 19.6427 64.2727 41.9577 41.9577C64.2727 19.6427 93.9416 7.35352 125.5 7.35352C160.236 7.35352 192.615 22.3027 215.123 48.5288L200.627 43.697C198.699 43.0539 196.618 44.0961 195.976 46.0227C195.334 47.9493 196.375 50.0314 198.301 50.6736L224.406 59.3752C224.787 59.5017 225.179 59.564 225.569 59.564C226.418 59.564 227.254 59.2698 227.925 58.71C228.903 57.8932 229.389 56.6284 229.209 55.3671Z" fill="#1D1D1D"/>
<path d="M115.281 165.053H78.2958C79.7728 152.184 88.9172 143.55 98.5503 134.454C108.583 124.981 118.958 115.185 118.958 100.475C118.958 88.4121 108.141 78.5977 94.8461 78.5977C81.5509 78.5977 70.7344 88.4121 70.7344 100.475C70.7344 102.506 72.3806 104.152 74.4111 104.152C76.4417 104.152 78.0879 102.506 78.0879 100.475C78.0879 92.4669 85.6051 85.9512 94.8461 85.9512C104.087 85.9512 111.604 92.4669 111.604 100.475C111.604 112.015 102.811 120.318 93.5018 129.108C82.8299 139.184 70.7344 150.605 70.7344 168.73C70.7344 170.76 72.3806 172.406 74.4111 172.406H115.281C117.312 172.406 118.958 170.76 118.958 168.73C118.958 166.699 117.312 165.053 115.281 165.053Z" fill="#4FBA6C"/>
<path d="M176.588 141.474H172.405V82.2744C172.405 80.2439 170.759 78.5977 168.728 78.5977C166.697 78.5977 165.051 80.2439 165.051 82.2744V141.474H133.861L144.833 82.9524C145.208 80.9567 143.893 79.0349 141.897 78.6609C139.903 78.2888 137.981 79.6012 137.606 81.5969L125.817 144.473C125.615 145.548 125.903 146.657 126.601 147.499C127.3 148.341 128.337 148.828 129.43 148.828H165.051V168.73C165.051 170.76 166.697 172.406 168.728 172.406C170.759 172.406 172.405 170.76 172.405 168.729V148.827H176.588C178.619 148.827 180.264 147.181 180.264 145.15C180.264 143.12 178.619 141.474 176.588 141.474Z" fill="#4FBA6C"/>
<path d="M125.501 19.6484C123.47 19.6484 121.824 21.2946 121.824 23.3252V39.0441C121.824 41.0746 123.47 42.7208 125.501 42.7208C127.532 42.7208 129.178 41.0746 129.178 39.0441V23.3252C129.178 21.2946 127.532 19.6484 125.501 19.6484Z" fill="#1D1D1D"/>
<path d="M125.501 208.277C123.47 208.277 121.824 209.924 121.824 211.954V227.673C121.824 229.704 123.47 231.35 125.501 231.35C127.532 231.35 129.178 229.704 129.178 227.673V211.954C129.178 209.924 127.532 208.277 125.501 208.277Z" fill="#1D1D1D"/>
<path d="M227.673 121.824H211.954C209.923 121.824 208.277 123.47 208.277 125.501C208.277 127.532 209.923 129.178 211.954 129.178H227.673C229.704 129.178 231.35 127.532 231.35 125.501C231.35 123.47 229.704 121.824 227.673 121.824Z" fill="#1D1D1D"/>
<path d="M39.0441 121.824H23.3252C21.2946 121.824 19.6484 123.47 19.6484 125.501C19.6484 127.532 21.2946 129.178 23.3252 129.178H39.0441C41.0746 129.178 42.7208 127.532 42.7208 125.501C42.7208 123.47 41.0746 121.824 39.0441 121.824Z" fill="#1D1D1D"/>
</g>
</g>
<defs>
<clipPath id="clip0_77_40">
<rect width="251" height="251" fill="white"/>
</clipPath>
</defs>
</svg>
