<svg width="32" height="32" viewBox="0 0 32 32" fill="none" xmlns="http://www.w3.org/2000/svg">
<g clip-path="url(#clip0_58_8)">
<path d="M1.21312 14.66C1.37242 14.66 1.53017 14.6286 1.67736 14.5677C1.82454 14.5067 1.95827 14.4173 2.07092 14.3047C2.18357 14.192 2.27292 14.0583 2.33389 13.9111C2.39485 13.7639 2.42623 13.6062 2.42623 13.4469V6.16673C2.42623 5.845 2.29842 5.53643 2.07092 5.30893C1.84342 5.08142 1.53485 4.95361 1.21312 4.95361C0.891378 4.95361 0.582817 5.08142 0.355314 5.30893C0.12781 5.53643 0 5.845 0 6.16673L0 13.4513C0.00116297 13.7723 0.129486 14.0797 0.356864 14.3062C0.584241 14.5328 0.892138 14.66 1.21312 14.66Z" fill="#4FBA6C"/>
<path d="M30.2869 4.95361C29.9651 4.95361 29.6566 5.08142 29.4291 5.30893C29.2016 5.53643 29.0737 5.845 29.0737 6.16673V13.4513C29.0737 13.773 29.2016 14.0816 29.4291 14.3091C29.6566 14.5366 29.9651 14.6644 30.2869 14.6644C30.6086 14.6644 30.9171 14.5366 31.1446 14.3091C31.3722 14.0816 31.5 13.773 31.5 13.4513V6.16673C31.5 5.845 31.3722 5.53643 31.1446 5.30893C30.9171 5.08142 30.6086 4.95361 30.2869 4.95361Z" fill="#4FBA6C"/>
<path d="M26.759 13.5347V3.69209C26.7582 2.71389 26.3696 1.7759 25.6783 1.0838C24.987 0.391689 24.0495 0.00193904 23.0713 0L8.30293 0C7.32396 0.000776034 6.38532 0.390012 5.69309 1.08225C5.00086 1.77448 4.61162 2.71313 4.61084 3.69209V13.5347C4.61412 16.2579 5.61928 18.8847 7.43474 20.9144C9.25019 22.9441 11.749 24.2349 14.455 24.5407V29.0386H10.7643C10.4379 29.0386 10.1249 29.1683 9.8941 29.3991C9.6633 29.6299 9.53363 29.9429 9.53363 30.2693C9.53363 30.5957 9.6633 30.9087 9.8941 31.1395C10.1249 31.3703 10.4379 31.5 10.7643 31.5H20.6084C20.9348 31.5 21.2479 31.3703 21.4787 31.1395C21.7095 30.9087 21.8391 30.5957 21.8391 30.2693C21.8391 29.9429 21.7095 29.6299 21.4787 29.3991C21.2479 29.1683 20.9348 29.0386 20.6084 29.0386H16.9178V24.5407C19.6232 24.2342 22.1214 22.9432 23.9362 20.9135C25.7511 18.8838 26.7558 16.2575 26.759 13.5347ZM7.07224 13.5347V3.69209C7.07262 3.36581 7.20241 3.053 7.43313 2.82229C7.66384 2.59157 7.97665 2.46178 8.30293 2.4614H23.0713C23.3976 2.46178 23.7104 2.59157 23.9411 2.82229C24.1718 3.053 24.3016 3.36581 24.302 3.69209V13.5347C24.302 15.8192 23.3945 18.01 21.7792 19.6254C20.1639 21.2407 17.973 22.1482 15.6886 22.1482C13.4042 22.1482 11.2133 21.2407 9.59798 19.6254C7.98265 18.01 7.07516 15.8192 7.07516 13.5347H7.07224Z" fill="#4FBA6C"/>
<path d="M12.1238 12.2075L11.7004 14.7568C11.663 14.9794 11.6885 15.208 11.7739 15.417C11.8594 15.6259 12.0014 15.8068 12.1841 15.9394C12.3668 16.072 12.5829 16.151 12.808 16.1675C13.0332 16.184 13.2584 16.1374 13.4585 16.0329L15.7529 14.8417L18.0472 16.0329C18.2473 16.1374 18.4726 16.184 18.6977 16.1675C18.9229 16.151 19.1389 16.072 19.3216 15.9394C19.5043 15.8068 19.6464 15.6259 19.7318 15.417C19.8173 15.208 19.8428 14.9794 19.8054 14.7568L19.382 12.2075L21.2236 10.3936C21.3843 10.2355 21.4977 10.0358 21.5512 9.81683C21.6047 9.59787 21.5961 9.36834 21.5264 9.15398C21.4567 8.93962 21.3287 8.74891 21.1567 8.60324C20.9847 8.45758 20.7755 8.36271 20.5526 8.32928L17.9974 7.94397L16.8415 5.63201C16.7408 5.43019 16.5859 5.26041 16.3942 5.14173C16.2024 5.02306 15.9813 4.96021 15.7558 4.96021C15.5303 4.96021 15.3092 5.02306 15.1175 5.14173C14.9257 5.26041 14.7708 5.43019 14.6702 5.63201L13.5142 7.94397L10.959 8.32928C10.7361 8.36271 10.5269 8.45758 10.3549 8.60324C10.1829 8.74891 10.0549 8.93962 9.9852 9.15398C9.91552 9.36834 9.90694 9.59787 9.96043 9.81683C10.0139 10.0358 10.1273 10.2355 10.288 10.3936L12.1238 12.2075ZM14.4929 10.2501C14.6853 10.2209 14.8678 10.146 15.0252 10.0315C15.1825 9.91699 15.31 9.76634 15.3968 9.59222L15.7485 8.8875L16.1001 9.59222C16.187 9.76634 16.3145 9.91699 16.4718 10.0315C16.6291 10.146 16.8117 10.2209 17.0041 10.2501L17.7835 10.3673L17.2224 10.9196C17.0836 11.0562 16.9798 11.2241 16.9196 11.4092C16.8594 11.5944 16.8447 11.7913 16.8766 11.9833L17.0056 12.7598L16.3067 12.3964C16.134 12.3068 15.9423 12.26 15.7477 12.26C15.5532 12.26 15.3615 12.3068 15.1888 12.3964L14.49 12.7598L14.6189 11.9833C14.6508 11.7913 14.6361 11.5944 14.5759 11.4092C14.5157 11.2241 14.4119 11.0562 14.2731 10.9196L13.712 10.3673L14.4929 10.2501Z" fill="#4FBA6C"/>
</g>
<defs>
<clipPath id="clip0_58_8">
<rect width="31.5" height="31.5" fill="white"/>
</clipPath>
</defs>
</svg>
