<svg width="60" height="52" viewBox="0 0 60 52" fill="none" xmlns="http://www.w3.org/2000/svg">
<path d="M21.1674 6C23.9962 6.36589 26.2824 9.60715 28.215 11.5847C28.5628 11.9385 28.9108 12.2922 29.2588 12.6458C29.9837 13.383 30.7076 14.1212 31.4307 14.8602C32.3574 15.8072 33.2861 16.7522 34.2155 17.6965C34.9322 18.425 35.6481 19.1542 36.3637 19.8837C36.706 20.2325 37.0485 20.5812 37.3912 20.9297C37.8686 21.4156 38.345 21.9024 38.8211 22.3895C39.0921 22.666 39.3631 22.9426 39.6423 23.2276C40.4645 24.114 40.8634 24.6097 41 25.8356C40.7999 27.8352 39.4423 29.1108 38.0867 30.4772C37.9292 30.6383 37.7717 30.7995 37.6094 30.9655C37.093 31.493 36.5745 32.0182 36.0558 32.5433C35.6942 32.9112 35.3327 33.2792 34.9713 33.6473C34.2157 34.416 33.4591 35.1837 32.7017 35.9507C31.7315 36.9333 30.7639 37.9186 29.7972 38.9047C29.0521 39.6641 28.3056 40.4221 27.5587 41.1796C27.2014 41.5424 26.8444 41.9056 26.488 42.2693C25.99 42.777 25.4902 43.2826 24.9898 43.7878C24.8433 43.9379 24.6968 44.088 24.5458 44.2427C23.6541 45.138 22.8803 45.9004 21.5941 46C21.3003 45.9679 21.3003 45.9679 21.0004 45.9352C20.8045 45.9192 20.6086 45.9033 20.4068 45.8869C19.4935 45.5261 19.1602 44.9671 18.6257 44.1439C18.4909 43.1696 18.4909 43.1696 18.5098 42.0828C18.5136 41.693 18.5174 41.3031 18.5214 40.9015C18.5313 40.4927 18.5413 40.084 18.5515 39.6753C18.5575 39.2607 18.5629 38.8461 18.5678 38.4314C18.5817 37.4191 18.6013 36.4073 18.6257 35.3952C18.4488 35.3978 18.2718 35.4005 18.0895 35.4033C16.2403 35.4301 14.3912 35.4482 12.5418 35.4615C11.8526 35.4675 11.1633 35.4757 10.4741 35.4862C9.48078 35.5009 8.48766 35.5077 7.49426 35.513C7.18836 35.5192 6.88246 35.5255 6.56729 35.5319C4.47445 35.5325 2.78182 35.2271 1.22255 33.7218C-0.329357 31.9107 0.0222637 29.1693 0.0608095 26.9233C0.0732783 26.1559 0.072994 25.3893 0.0709554 24.6218C0.0740692 24.13 0.0779094 23.6382 0.0825506 23.1464C0.0826104 22.9191 0.0826702 22.6919 0.0827318 22.4578C0.119974 20.7582 0.474837 19.4908 1.63284 18.2405C1.81 18.0962 1.98717 17.952 2.1697 17.8033C2.4366 17.5811 2.4366 17.5811 2.70888 17.3543C3.56819 16.7083 4.1321 16.6482 5.18636 16.6289C5.47752 16.6229 5.76868 16.6169 6.06866 16.6107C6.5413 16.6031 6.5413 16.6031 7.02349 16.5954C7.34549 16.5891 7.6675 16.5829 7.99926 16.5764C9.03063 16.5566 10.062 16.5389 11.0934 16.5212C11.7915 16.5081 12.4895 16.495 13.1875 16.4817C14.9013 16.4493 16.6151 16.4186 18.3289 16.3892C18.3301 16.1412 18.3313 15.8932 18.3326 15.6377C18.3424 14.5116 18.3633 13.3859 18.3846 12.2599C18.3863 11.8697 18.388 11.4794 18.3898 11.0773C18.3984 10.7011 18.407 10.3248 18.4159 9.93719C18.4229 9.41821 18.4229 9.41821 18.43 8.88874C18.6807 7.67607 19.197 7.22545 20.1099 6.43367C20.4068 6.13199 20.4068 6.13199 21.1674 6Z" fill="#252525"/>
<path d="M42.3688 0.0331813C42.5924 0.0315048 42.816 0.0298282 43.0463 0.0281009C43.5213 0.0253188 43.9962 0.0233986 44.4712 0.0222665C45.1891 0.0194368 45.9067 0.0103255 46.6245 0.00101126C50.5447 -0.02603 53.9292 0.474447 56.9347 3.295C58.8227 5.37709 59.8427 7.52638 59.8613 10.3763C59.8638 10.6627 59.8662 10.9492 59.8688 11.2444C59.87 11.5553 59.8713 11.8663 59.8725 12.1866C59.8761 12.6819 59.8761 12.6819 59.8797 13.1872C59.8869 14.2795 59.8917 15.3718 59.8959 16.464C59.8974 16.838 59.8989 17.2119 59.9005 17.5971C59.9067 19.1698 59.9122 20.7425 59.9155 22.3152C59.9202 24.56 59.9298 26.8046 59.9463 29.0494C59.9589 30.8241 59.9635 32.5988 59.9653 34.3736C59.9672 35.1251 59.9716 35.8767 59.9786 36.6282C59.9878 37.6833 59.9877 38.738 59.9856 39.7932C59.9904 40.0999 59.9951 40.4067 60 40.7228C59.9752 43.7355 58.9938 46.4948 56.9302 48.6973C54.2434 51.0541 51.4243 51.8928 47.9304 51.9292C47.6019 51.9328 47.6019 51.9328 47.2668 51.9364C46.8064 51.9405 46.3459 51.9437 45.8854 51.946C45.4158 51.9494 44.9462 51.9554 44.4766 51.9641C43.7947 51.9766 43.113 51.9814 42.431 51.9844C42.1179 51.9921 42.1179 51.9921 41.7986 52C40.7626 51.9955 40.1839 51.8912 39.3037 51.3182C38.5542 50.5452 38.1399 50.0446 38 48.9547C38.1335 47.8242 38.4948 47.372 39.2663 46.5649C40.1453 46.1183 41.0617 46.2247 42.0262 46.2191C42.4741 46.2122 42.922 46.2051 43.3699 46.1978C44.0742 46.1875 44.7784 46.1789 45.4828 46.1749C49.7163 46.2111 49.7163 46.2111 53.2862 44.12C54.3743 42.218 54.4045 40.3629 54.406 38.2169C54.4084 37.9168 54.4108 37.6166 54.4133 37.3074C54.4203 36.3191 54.4228 35.3309 54.4247 34.3426C54.4273 33.6528 54.43 32.9631 54.4326 32.2734C54.4374 30.829 54.4396 29.3847 54.4405 27.9403C54.442 26.0931 54.453 24.2462 54.4662 22.399C54.4748 20.9749 54.4769 19.5508 54.4772 18.1266C54.4784 17.4457 54.482 16.7649 54.488 16.0841C54.4958 15.1303 54.4944 14.1769 54.4908 13.2231C54.4951 12.9443 54.4994 12.6655 54.5038 12.3783C54.4828 10.4241 54.0084 9.03081 52.8701 7.44609C51.52 6.19738 50.4202 6.10539 48.6822 6.13171C48.4511 6.12963 48.22 6.12756 47.9818 6.12542C47.2474 6.11897 46.5132 6.11982 45.7788 6.12252C44.8108 6.12607 43.8432 6.12201 42.8753 6.11332C42.6555 6.11665 42.4356 6.11998 42.2091 6.12341C40.7162 6.10909 39.8717 5.79955 38.6874 4.79895C38.0041 3.75736 37.9428 3.37905 38.1085 2.15181C39.2656 0.263483 40.2987 0.0451689 42.3688 0.0331813Z" fill="#252525"/>
<path d="M24.1779 14C25.5465 14.8519 26.5618 15.9387 27.6572 17.1929C27.8382 17.3993 28.0192 17.6056 28.2057 17.8182C28.5856 18.2533 28.9647 18.6893 29.343 19.1263C29.9239 19.7946 30.511 20.455 31.0984 21.1156C31.4675 21.54 31.8361 21.9647 32.2043 22.39C32.4692 22.6848 32.4692 22.6848 32.7394 22.9855C33.8935 24.3424 33.8935 24.3424 34 25.4832C33.4113 26.8602 32.5397 27.8143 31.5979 28.8795C31.3963 29.1126 31.1948 29.3457 30.9871 29.5859C30.5617 30.0768 30.1348 30.5659 29.7066 31.0535C29.0482 31.8032 28.394 32.5575 27.7404 33.313C27.3268 33.7889 26.913 34.2647 26.499 34.7401C26.3018 34.9667 26.1045 35.1934 25.9013 35.4269C24.5183 37 24.5183 37 24.1779 37C24.17 36.6333 24.1622 36.2665 24.1541 35.8887C24.1369 35.404 24.1195 34.9193 24.1018 34.4346C24.0974 34.1933 24.0931 33.952 24.0887 33.7034C24.0383 32.4977 23.9465 31.8029 23.3074 30.8353C22.2516 29.9306 21.3753 29.8741 20.102 29.8504C19.7669 29.8434 19.4317 29.8363 19.0864 29.829C18.5442 29.8202 18.5442 29.8202 17.991 29.8111C17.6206 29.8038 17.2503 29.7964 16.8688 29.7888C15.6839 29.7657 14.4991 29.7448 13.3142 29.724C12.5118 29.7088 11.7093 29.6933 10.9069 29.6777C8.93793 29.6395 6.96898 29.6045 5 29.5692C5 26.7668 5 23.9643 5 21.0769C5.50843 21.0736 6.01687 21.0703 6.54071 21.0669C8.4271 21.0528 10.3133 21.0295 12.1996 21.0035C13.0161 20.9927 13.8324 20.9854 14.6489 20.981C15.8225 20.9735 16.9958 20.957 18.1693 20.9387C18.5343 20.9383 18.8994 20.9378 19.2755 20.9374C21.248 20.919 21.248 20.919 23.0313 20.0461C23.9422 18.7952 23.9491 17.8748 24.0447 16.2558C24.0702 15.8352 24.0957 15.4147 24.122 14.9814C24.1496 14.4956 24.1496 14.4956 24.1779 14Z" fill="#FBFCFC"/>
</svg>
