<svg width="251" height="251" viewBox="0 0 251 251" fill="none" xmlns="http://www.w3.org/2000/svg">
<g clip-path="url(#clip0_77_8)">
<mask id="mask0_77_8" style="mask-type:luminance" maskUnits="userSpaceOnUse" x="0" y="0" width="251" height="251">
<path d="M251 0H0V251H251V0Z" fill="white"/>
</mask>
<g mask="url(#mask0_77_8)">
<path d="M246.379 131.586C243.067 128.23 243.067 122.769 246.379 119.412C249.992 115.75 251.603 110.735 250.798 105.654C249.993 100.573 246.912 96.3013 242.344 93.9354C238.157 91.7666 236.47 86.5726 238.582 82.3571C240.887 77.7572 240.869 72.4907 238.533 67.9065C236.197 63.3223 231.946 60.2128 226.871 59.3745C222.219 58.6058 219.009 54.1868 219.715 49.5252C220.486 44.4385 218.842 39.4352 215.204 35.7977C211.566 32.1601 206.564 30.5154 201.476 31.2856C196.816 31.9935 192.396 28.7824 191.627 24.1296C190.788 19.0537 187.678 14.8034 183.094 12.4679C178.511 10.1325 173.244 10.1148 168.644 12.4199C164.429 14.5323 159.235 12.8444 157.066 8.65736C154.7 4.08936 150.428 1.00825 145.348 0.203284C140.27 -0.60168 135.252 1.00923 131.59 4.62274C128.232 7.93476 122.773 7.93476 119.416 4.62274C115.753 1.00923 110.738 -0.60217 105.658 0.203284C100.576 1.00825 96.3055 4.08985 93.9397 8.65736C91.7704 12.8444 86.5778 14.5333 82.3608 12.4199C77.7619 10.1148 72.4959 10.132 67.9112 12.4679C63.3265 14.8034 60.217 19.0542 59.3782 24.1306C58.6095 28.7824 54.1905 31.9959 49.5294 31.2856C44.4447 30.5159 39.4394 32.1592 35.8009 35.7977C32.1629 39.4357 30.5191 44.4385 31.2898 49.5252C31.9957 54.1873 28.7862 58.6058 24.1338 59.3745C19.058 60.2132 14.8081 63.3233 12.4722 67.907C10.1362 72.4907 10.1186 77.7577 12.4236 82.3571C14.5361 86.5731 12.8482 91.7666 8.66158 93.9354C4.0931 96.3018 1.01198 100.573 0.207018 105.654C-0.597945 110.735 1.01296 115.75 4.62647 119.412C7.93849 122.769 7.93849 128.23 4.62647 131.586C1.01296 135.248 -0.597455 140.263 0.207018 145.344C1.01149 150.426 4.09359 154.697 8.66158 157.063C12.8482 159.232 14.5356 164.426 12.4236 168.641C10.1186 173.241 10.1362 178.508 12.4722 183.092C14.8081 187.676 19.0585 190.785 24.1338 191.624C28.7862 192.392 31.9957 196.811 31.2898 201.473C30.5191 206.56 32.1629 211.563 35.8009 215.201C39.4389 218.838 44.4413 220.483 49.5294 219.713C54.1881 219.004 58.6095 222.216 59.3782 226.869C60.217 231.944 63.3275 236.195 67.9107 238.53C72.4944 240.865 77.7615 240.883 82.3613 238.578C86.5768 236.466 91.7704 238.154 93.9397 242.341C96.3055 246.909 100.577 249.99 105.658 250.795C110.738 251.601 115.754 249.989 119.416 246.375C122.773 243.063 128.232 243.063 131.59 246.375C134.633 249.378 138.61 250.998 142.783 250.998C143.631 250.998 144.489 250.931 145.348 250.795C150.429 249.99 154.7 246.908 157.066 242.341C159.235 238.154 164.429 236.466 168.644 238.578C173.244 240.883 178.509 240.866 183.094 238.53C187.679 236.195 190.788 231.944 191.627 226.868C192.396 222.216 196.817 219.004 201.476 219.713C206.562 220.483 211.566 218.839 215.204 215.201C218.842 211.563 220.486 206.56 219.715 201.473C219.009 196.811 222.219 192.392 226.871 191.624C231.947 190.785 236.197 187.675 238.533 183.091C240.869 178.507 240.887 173.24 238.582 168.641C236.469 164.425 238.157 159.232 242.344 157.063C246.912 154.696 249.993 150.425 250.798 145.344C251.603 140.263 249.992 135.248 246.379 131.586ZM241.144 136.751C243.099 138.732 243.971 141.445 243.535 144.194C243.1 146.943 241.432 149.253 238.961 150.534C231.222 154.543 228.103 164.144 232.007 171.936C233.254 174.424 233.244 177.274 231.98 179.753C230.717 182.233 228.417 183.916 225.671 184.369C217.072 185.79 211.138 193.958 212.444 202.576C212.861 205.327 211.972 208.034 210.003 210.002C208.035 211.97 205.33 212.86 202.577 212.443C193.958 211.136 185.792 217.07 184.371 225.669C183.917 228.416 182.235 230.715 179.755 231.979C177.274 233.243 174.425 233.252 171.937 232.005C164.144 228.099 154.544 231.219 150.536 238.959C149.256 241.431 146.945 243.098 144.195 243.533C141.446 243.968 138.733 243.097 136.752 241.143C133.65 238.081 129.576 236.551 125.501 236.551C121.426 236.551 117.351 238.082 114.25 241.142C112.268 243.098 109.552 243.969 106.806 243.533C104.058 243.098 101.747 241.43 100.466 238.959C96.457 231.22 86.8563 228.102 79.064 232.005C76.5756 233.251 73.7259 233.242 71.2477 231.979C68.7671 230.715 67.0847 228.415 66.6307 225.669C65.21 217.07 57.0447 211.136 48.4249 212.443C45.6737 212.86 42.9657 211.97 40.9984 210.002C39.0301 208.033 38.1408 205.327 38.5575 202.576C39.8635 193.958 33.9297 185.791 25.3305 184.369C22.5842 183.916 20.285 182.233 19.0217 179.753C17.7579 177.273 17.7481 174.424 18.9952 171.936C22.8999 164.144 19.7806 154.543 12.0413 150.534C9.56999 149.254 7.9027 146.943 7.46738 144.194C7.03156 141.445 7.90319 138.732 9.85824 136.751C15.9798 130.547 15.9798 120.452 9.85824 114.248C7.90319 112.267 7.03156 109.554 7.46738 106.806C7.9027 104.056 9.56999 101.746 12.0417 100.465C19.7801 96.4562 22.8994 86.8555 18.9957 79.0632C17.7486 76.5748 17.7584 73.7256 19.0222 71.246C20.2855 68.7659 22.5852 67.0834 25.331 66.6299C33.9302 65.2087 39.864 57.0414 38.558 48.4236C38.1408 45.6719 39.0306 42.9654 40.9989 40.9976C42.9676 39.0298 45.6752 38.14 48.4254 38.5567C57.0417 39.8597 65.2105 33.9289 66.6312 25.3297C67.0852 22.5834 68.7676 20.2842 71.2477 19.0204C73.7283 17.7571 76.5775 17.7478 79.065 18.9944C86.8572 22.9001 96.4585 19.7798 100.467 12.0405C101.747 9.5687 104.058 7.90191 106.807 7.46658C109.554 7.03077 112.269 7.9024 114.25 9.85696C120.454 15.979 130.549 15.979 136.753 9.85696C138.734 7.90191 141.451 7.03027 144.196 7.46609C146.945 7.90142 149.256 9.5687 150.536 12.04C154.546 19.7798 164.147 22.8982 171.938 18.9944C174.426 17.7478 177.276 17.7571 179.755 19.0204C182.235 20.2837 183.918 22.5839 184.372 25.3297C185.792 33.9289 193.956 39.8612 202.577 38.5567C205.33 38.1395 208.037 39.0293 210.004 40.9976C211.972 42.9659 212.861 45.6724 212.445 48.4236C211.139 57.0409 217.073 65.2082 225.672 66.6299C228.418 67.0834 230.717 68.7659 231.981 71.246C233.244 73.7261 233.254 76.5753 232.007 79.0632C228.102 86.8555 231.222 96.4562 238.962 100.465C241.433 101.745 243.1 104.056 243.535 106.805C243.971 109.554 243.1 112.267 241.145 114.248C235.023 120.452 235.023 130.547 241.144 136.751Z" fill="#1D1D1D"/>
<path d="M191.556 47.9202C172.113 31.3332 147.296 22.7232 121.676 23.6679C95.9115 24.6204 71.6769 35.1918 53.4343 53.4339C35.1922 71.676 24.6213 95.9116 23.6683 121.676C22.7207 147.296 31.3336 172.113 47.9206 191.555C48.6481 192.407 49.6806 192.845 50.7199 192.845C51.5636 192.845 52.4117 192.556 53.1044 191.966C54.6486 190.648 54.8329 188.327 53.5152 186.782C38.1272 168.746 30.1379 145.721 31.0169 121.947C31.9013 98.0442 41.7089 75.5586 58.6347 58.6333C75.5595 41.708 98.0445 31.9004 121.948 31.016C145.72 30.1351 168.747 38.1268 186.783 53.5143C188.328 54.8325 190.649 54.6482 191.966 53.1035C193.284 51.5588 193.1 49.238 191.556 47.9202Z" fill="#1D1D1D"/>
<path d="M203.082 59.4469C201.763 57.9027 199.444 57.7173 197.897 59.0361C196.353 60.3538 196.169 62.6746 197.487 64.2193C212.875 82.2555 220.864 105.281 219.985 129.054C219.101 152.957 209.293 175.443 192.368 192.368C175.443 209.294 152.957 219.102 129.054 219.986C105.275 220.864 82.2543 212.875 64.2196 197.487C62.6739 196.169 60.3531 196.353 59.0358 197.898C57.7181 199.443 57.9019 201.764 59.4466 203.081C77.9221 218.843 101.249 227.404 125.508 227.404C126.778 227.404 128.051 227.381 129.326 227.334C155.091 226.381 179.325 215.81 197.568 197.568C215.81 179.326 226.381 155.09 227.334 129.326C228.282 103.706 219.669 78.8886 203.082 59.4469Z" fill="#1D1D1D"/>
<path d="M93.2707 94.4341C91.2396 94.4341 89.5939 96.0803 89.5939 98.1109V137.551L69.0512 96.4666C68.2884 94.941 66.5794 94.14 64.9175 94.5327C63.2581 94.9244 62.0859 96.4058 62.0859 98.1109V153.126C62.0859 155.156 63.7317 156.803 65.7627 156.803C67.7937 156.803 69.4394 155.156 69.4394 153.126V113.686L89.9822 154.77C90.6151 156.036 91.9014 156.803 93.2697 156.803C93.5496 156.803 93.833 156.771 94.1158 156.704C95.7753 156.312 96.9474 154.831 96.9474 153.126V98.1109C96.9474 96.0803 95.3017 94.4341 93.2707 94.4341Z" fill="#4FBA6C"/>
<path d="M132.563 149.45H112.662V129.295H124.703C126.734 129.295 128.38 127.649 128.38 125.618C128.38 123.588 126.734 121.942 124.703 121.942H112.662V101.787H132.563C134.594 101.787 136.24 100.141 136.24 98.1103C136.24 96.0798 134.594 94.4336 132.563 94.4336H108.985C106.954 94.4336 105.309 96.0798 105.309 98.1103V153.125C105.309 155.156 106.954 156.802 108.985 156.802H132.563C134.594 156.802 136.24 155.156 136.24 153.125C136.24 151.096 134.594 149.45 132.563 149.45Z" fill="#4FBA6C"/>
<path d="M192.279 94.5159C190.299 94.0913 188.34 95.3547 187.914 97.3406L179.72 135.578L171.527 97.3406C171.163 95.6454 169.665 94.434 167.931 94.434C166.198 94.434 164.699 95.6454 164.336 97.3406L156.142 135.578L147.949 97.3406C147.523 95.3547 145.569 94.0908 143.583 94.5159C141.597 94.9414 140.333 96.8959 140.758 98.8814L152.547 153.896C152.91 155.592 154.409 156.803 156.142 156.803C157.875 156.803 159.374 155.592 159.737 153.896L167.931 115.659L176.124 153.896C176.488 155.592 177.986 156.803 179.72 156.803C181.453 156.803 182.952 155.592 183.315 153.896L195.104 98.8814C195.529 96.8959 194.265 94.9414 192.279 94.5159Z" fill="#4FBA6C"/>
</g>
</g>
<defs>
<clipPath id="clip0_77_8">
<rect width="251" height="251" fill="white"/>
</clipPath>
</defs>
</svg>
