<svg width="251" height="251" viewBox="0 0 251 251" fill="none" xmlns="http://www.w3.org/2000/svg">
<g clip-path="url(#clip0_77_19)">
<mask id="mask0_77_19" style="mask-type:luminance" maskUnits="userSpaceOnUse" x="0" y="0" width="251" height="251">
<path d="M251 0H0V251H251V0Z" fill="white"/>
</mask>
<g mask="url(#mask0_77_19)">
<path d="M214.242 36.7578C190.538 13.0545 159.022 0 125.5 0C91.9778 0 60.4621 13.0545 36.7578 36.7578C13.0545 60.4616 0 91.9778 0 125.5C0 159.022 13.0545 190.538 36.7578 214.242C60.4621 237.946 91.9778 251 125.5 251C159.022 251 190.538 237.946 214.242 214.242C237.946 190.538 251 159.022 251 125.5C251 91.9778 237.946 60.4616 214.242 36.7578ZM209.042 209.042C186.727 231.357 157.058 243.646 125.5 243.646C93.9417 243.646 64.2727 231.357 41.9577 209.042C19.6427 186.727 7.35352 157.058 7.35352 125.5C7.35352 93.9417 19.6427 64.2727 41.9577 41.9577C64.2727 19.6427 93.9417 7.35352 125.5 7.35352C157.058 7.35352 186.727 19.6427 209.042 41.9577C231.357 64.2727 243.646 93.9417 243.646 125.5C243.646 157.058 231.357 186.727 209.042 209.042Z" fill="#1D1D1D"/>
<path d="M125.5 15.7188C96.1765 15.7188 68.6077 27.1378 47.8731 47.8727C27.1383 68.6077 15.7188 96.1765 15.7188 125.5C15.7188 127.531 17.365 129.177 19.3955 129.177C21.4261 129.177 23.0723 127.531 23.0723 125.5C23.0723 69.0214 69.021 23.0723 125.5 23.0723C127.53 23.0723 129.177 21.4265 129.177 19.3955C129.177 17.3645 127.53 15.7188 125.5 15.7188Z" fill="#1D1D1D"/>
<path d="M231.605 121.824C229.575 121.824 227.929 123.47 227.929 125.501C227.929 181.979 181.98 227.929 125.501 227.929C123.47 227.929 121.824 229.574 121.824 231.605C121.824 233.636 123.47 235.282 125.501 235.282C154.824 235.282 182.393 223.863 203.128 203.128C223.863 182.393 235.282 154.825 235.282 125.501C235.282 123.47 233.636 121.824 231.605 121.824Z" fill="#1D1D1D"/>
<path d="M185.965 53.4737C168.016 38.374 145.179 30.5738 121.662 31.5274C98.0013 32.4804 75.7432 42.2331 58.988 58.9888C42.2327 75.7445 32.4795 98.0026 31.5265 121.663C30.5789 145.181 38.3726 168.018 53.4728 185.966C54.1998 186.831 55.2406 187.276 56.2882 187.276C57.1236 187.276 57.9639 186.993 58.6531 186.413C60.2072 185.106 60.4072 182.787 59.0997 181.233C45.183 164.69 38.0005 143.64 38.8736 121.959C39.7521 100.15 48.7421 79.6336 64.1874 64.1887C79.6327 48.7434 100.149 39.7535 121.958 38.8745C143.641 38.0063 164.689 45.1843 181.231 59.1006C182.785 60.409 185.105 60.2085 186.412 58.654C187.719 57.0999 187.519 54.7811 185.965 53.4737Z" fill="#1D1D1D"/>
<path d="M197.529 65.0323C196.222 63.4782 193.903 63.2792 192.348 64.5857C190.794 65.8931 190.594 68.2119 191.902 69.766C205.818 86.308 213.001 107.359 212.127 129.039C211.249 150.848 202.259 171.365 186.814 186.809C171.369 202.255 150.852 211.245 129.044 212.123C107.36 213.004 86.3118 205.814 69.7703 191.898C68.2167 190.59 65.8974 190.79 64.59 192.344C63.2825 193.898 63.4826 196.217 65.0366 197.524C82.008 211.802 103.35 219.548 125.506 219.548C126.781 219.549 128.059 219.523 129.34 219.471C153 218.518 175.258 208.765 192.014 192.01C208.769 175.254 218.522 152.996 219.475 129.335C220.423 105.817 212.629 82.9807 197.529 65.0323Z" fill="#1D1D1D"/>
<path d="M137.038 126.118V84.1472C144.363 87.0425 149.333 92.6033 149.333 98.9763C149.333 101.007 150.98 102.653 153.01 102.653C155.041 102.653 156.687 101.007 156.687 98.9763C156.687 88.749 148.537 79.9827 137.038 76.3995V70.4854C137.038 68.4543 135.392 66.8086 133.361 66.8086C131.331 66.8086 129.684 68.4543 129.684 70.4854V74.8931C128.315 74.7494 126.921 74.668 125.502 74.668C124.082 74.668 122.688 74.7494 121.319 74.8931V70.4854C121.319 68.4543 119.672 66.8086 117.642 66.8086C115.611 66.8086 113.965 68.4543 113.965 70.4854V76.3995C102.466 79.9832 94.3164 88.749 94.3164 98.9763C94.3164 112.769 102.808 119.799 113.965 124.887V166.857C106.64 163.961 101.67 158.401 101.67 152.028C101.67 149.997 100.024 148.352 97.9932 148.352C95.9626 148.352 94.3164 149.997 94.3164 152.028C94.3164 162.256 102.466 171.022 113.965 174.605V180.519C113.965 182.55 115.611 184.196 117.642 184.196C119.672 184.196 121.319 182.55 121.319 180.519V176.111C122.688 176.255 124.082 176.336 125.502 176.336C126.92 176.336 128.315 176.255 129.684 176.111V180.519C129.684 182.55 131.331 184.196 133.361 184.196C135.392 184.196 137.038 182.55 137.038 180.519V174.605C148.538 171.022 156.687 162.256 156.687 152.028C156.687 138.235 148.195 131.205 137.038 126.118ZM113.965 116.676C105.802 112.363 101.67 107.315 101.67 98.9763C101.67 92.6033 106.64 87.043 113.965 84.1472V116.676ZM129.684 168.716C128.325 168.888 126.929 168.982 125.502 168.982C124.074 168.982 122.678 168.888 121.319 168.716V127.891C122.292 128.254 123.276 128.611 124.265 128.964C126.182 129.649 127.985 130.324 129.684 131V168.716ZM129.685 123.113C128.711 122.749 127.728 122.392 126.739 122.039C124.821 121.355 123.018 120.68 121.319 120.003V82.2887C122.678 82.1167 124.075 82.022 125.502 82.022C126.93 82.022 128.325 82.1167 129.685 82.2887V123.113ZM137.038 166.857V134.328C145.202 138.641 149.333 143.689 149.333 152.028C149.333 158.401 144.363 163.961 137.038 166.857Z" fill="#4FBA6C"/>
</g>
</g>
<defs>
<clipPath id="clip0_77_19">
<rect width="251" height="251" fill="white"/>
</clipPath>
</defs>
</svg>
