<svg width="640" height="640" viewBox="0 0 640 640" fill="none" xmlns="http://www.w3.org/2000/svg">
<path d="M53.5 245.1L110.3 131.4C121.2 109.7 143.3 96 167.6 96H472.5C496.7 96 518.9 109.7 529.7 131.4L586.5 245.1C590.1 252.3 592 260.2 592 268.3C592 295.6 570.8 318 544 319.9V512C544 529.7 529.7 544 512 544C494.3 544 480 529.7 480 512V320H384V496C384 522.5 362.5 544 336 544H144C117.5 544 96 522.5 96 496V319.9C69.2 318 48 295.6 48 268.3C48 260.3 49.9 252.3 53.5 245.1ZM160 320V432C160 440.8 167.2 448 176 448H304C312.8 448 320 440.8 320 432V320H160Z" fill="#4FBA6C"/>
</svg>
